<svg id="Layer_1" data-name="Layer 1" xmlns="http://www.w3.org/2000/svg" xmlns:xlink="http://www.w3.org/1999/xlink" viewBox="0 0 1920 1080"><defs><style>.cls-1{fill:url(#linear-gradient);}.cls-2{fill:url(#linear-gradient-2);}</style><linearGradient id="linear-gradient" x1="1929.81" y1="388.13" x2="1618.83" y2="-80.63" gradientUnits="userSpaceOnUse"><stop offset="0.26" stop-color="#00b9f9"/><stop offset="0.35" stop-color="#00b5f8" stop-opacity="0.98"/><stop offset="0.46" stop-color="#00a9f6" stop-opacity="0.94"/><stop offset="0.58" stop-color="#0095f3" stop-opacity="0.86"/><stop offset="0.71" stop-color="#007aef" stop-opacity="0.75"/><stop offset="0.82" stop-color="#0061eb" stop-opacity="0.65"/></linearGradient><linearGradient id="linear-gradient-2" x1="-3.41" y1="512.5" x2="192.08" y2="1205.58" xlink:href="#linear-gradient"/></defs><title>main-bg</title><path class="cls-1" d="M1484.53,0S1451,168.78,1649.44,222.89c53.26,14.52,127.55,36.63,150,93.92,6.3,16.07,6.41,33.11,8.93,49.84a94.21,94.21,0,0,0,65.79,76.44c4.38,1.35,45.83,8.69,45.83,7.84V0Z"/><path class="cls-2" d="M0,465c0-.33,34.92,6.67,38.69,7.56,27.8,6.56,55.17,23.16,66.44,50.51,11.68,28.35,2.72,57.24-1.62,86-5.2,34.39-1.32,73.16,23.24,97.77,17.81,17.85,42.06,26.86,59.51,45.42A249.39,249.39,0,0,1,228.78,814c21.7,44.65,31.48,99.81,7.55,145.64a192.77,192.77,0,0,1-88.74,84.81,211.26,211.26,0,0,1-63.43,17.82c-8,1-84.16,3.83-84.16-2.7Z"/></svg>