<svg xmlns="http://www.w3.org/2000/svg" xmlns:xlink="http://www.w3.org/1999/xlink" viewBox="0 0 500 500"><defs><style>.cls-1{fill:none;}.cls-2{fill:url(#linear-gradient);}.cls-3{clip-path:url(#clip-path);}.cls-4{fill:#7ad8e2;opacity:0.4;}.cls-5{fill:#a9e3f1;opacity:0.2;}.cls-10,.cls-6{fill:#d6e8f2;}.cls-6{opacity:0.3;}.cls-7{fill:#9ed7f2;}.cls-8{fill:#fff;}.cls-9{fill:#e7f6fd;}.cls-11{fill:#5badd5;}.cls-12{clip-path:url(#clip-path-2);}.cls-13{fill:#478cb6;}</style><linearGradient id="linear-gradient" x1="250" y1="478.13" x2="250" y2="6.78" gradientUnits="userSpaceOnUse"><stop offset="0" stop-color="#4ad6d6"/><stop offset="0.54" stop-color="#42b5d6"/><stop offset="1" stop-color="#2196f3" stop-opacity="0.9"/></linearGradient><clipPath id="clip-path"><rect class="cls-1" x="0.05" y="170.93" width="499.95" height="330.32"/></clipPath><clipPath id="clip-path-2"><rect class="cls-1" y="414.28" width="500" height="85.75"/></clipPath></defs><title>weather-bg</title><g id="BACKGROUND"><rect class="cls-2" width="500" height="500"/></g><g id="OBJECTS"><g class="cls-3"><path class="cls-4" d="M514.43,299.28a43.6,43.6,0,0,0-43.6-43.6c-.29,0-.57,0-.86,0v0a15.89,15.89,0,0,0-27.71-10.63,43.4,43.4,0,0,0-24.32-7.41,44,44,0,0,0-5.67.38,31.82,31.82,0,0,0-29.69-20.4h0a43.6,43.6,0,0,0-84.86,5.06l-.59,0a44.14,44.14,0,0,0-4.63.25,31.8,31.8,0,0,0-49.88-5.76,43.73,43.73,0,0,0-26.88-4.58,15.88,15.88,0,0,0-15.07-10.85c-.26,0-.51,0-.76,0A31.8,31.8,0,0,0,141,212.32h-.45A31.68,31.68,0,0,0,119.75,220a43.58,43.58,0,0,0-79.89,20.43A31.82,31.82,0,0,0,.05,271.24V500H500V331.68A43.47,43.47,0,0,0,514.43,299.28Z"/><path class="cls-5" d="M510.3,399A45.08,45.08,0,0,0,497,367a14.89,14.89,0,1,0-26.79-12.91,46.1,46.1,0,0,0-5.15-.3c-1.13,0-2.24.06-3.35.14.07-1,.12-2.07.12-3.12a45.22,45.22,0,0,0-63.34-41.44,32.55,32.55,0,0,0,1-8,32.11,32.11,0,0,0-61.83-12.18,45.23,45.23,0,0,0-25.79,15.6,45.22,45.22,0,0,0-48.7,1.76,32.54,32.54,0,0,0-8.19-1.05,30.56,30.56,0,0,0-3.33.17c.14-1.42.21-2.85.21-4.3a45.23,45.23,0,1,0-90.45,0s0,.08,0,.12a32.06,32.06,0,0,0-12.57,3.77,45.22,45.22,0,0,0-81.06,17.32,32.12,32.12,0,0,0-46.47,26.3,15.78,15.78,0,0,0-2.08-.16A14.89,14.89,0,0,0,4.37,363.6V493.54H498.84V429.08A45,45,0,0,0,510.3,399Z"/></g><path class="cls-6" d="M462.76,188.12a3.54,3.54,0,0,0-1.2-.54,5.18,5.18,0,0,0-1.94-1.62,6.8,6.8,0,0,0-6.72-5.81,6.66,6.66,0,0,0-2.57.51,5,5,0,0,0-7.91-2.92,6.67,6.67,0,0,0-11.67,2.08,5.13,5.13,0,0,0-2-.39,5,5,0,0,0-4.7,3.26,3.34,3.34,0,0,0-2.77,3.3,3.4,3.4,0,0,0,.59,1.91,4.2,4.2,0,0,0-1.78,2.31,3.36,3.36,0,0,0,.66,6.65,3.55,3.55,0,0,0,.57-.05,3.34,3.34,0,0,0,5.94,1.58,10.75,10.75,0,0,0,16.35-.32,6.67,6.67,0,0,0,12-2.85,5,5,0,0,0,5.1-.82,3.35,3.35,0,1,0,2-6.28Z"/><path class="cls-7" d="M439.3,131a11.61,11.61,0,0,0-9.17-12.11,16.22,16.22,0,1,0-30.94-9.55,17.53,17.53,0,0,0-13.36-7.65,17.71,17.71,0,0,0-5.8.6,16.22,16.22,0,0,0-30.6-2.75A11.58,11.58,0,0,0,330.3,107a26.26,26.26,0,0,0-7.45,9.1,12.94,12.94,0,0,0-.44,25.85,13.5,13.5,0,0,0,1.8,0,26.42,26.42,0,0,0,14.93,11.27,16.21,16.21,0,0,0,30.41,5.68A13.49,13.49,0,0,0,371,159a16.1,16.1,0,0,0,11.39-3.69,16.18,16.18,0,0,0,22.44,1.28,16,16,0,0,0,7.11,2.2,16.23,16.23,0,0,0,17.27-15.12,15.53,15.53,0,0,0,0-1.93A11.62,11.62,0,0,0,439.3,131Z"/><path class="cls-7" d="M439.3,131a11.61,11.61,0,0,0-9.17-12.11,16.22,16.22,0,1,0-30.94-9.55,17.53,17.53,0,0,0-13.36-7.65,17.71,17.71,0,0,0-5.8.6,16.22,16.22,0,0,0-30.6-2.75A11.58,11.58,0,0,0,330.3,107a26.26,26.26,0,0,0-7.45,9.1,12.94,12.94,0,0,0-.44,25.85,13.5,13.5,0,0,0,1.8,0,26.42,26.42,0,0,0,14.93,11.27,16.21,16.21,0,0,0,30.41,5.68A13.49,13.49,0,0,0,371,159a16.1,16.1,0,0,0,11.39-3.69,16.18,16.18,0,0,0,22.44,1.28,16,16,0,0,0,7.11,2.2,16.23,16.23,0,0,0,17.27-15.12,15.53,15.53,0,0,0,0-1.93A11.62,11.62,0,0,0,439.3,131Z"/><path class="cls-8" d="M438.35,134.88a11.6,11.6,0,0,0-8.22-16,16.22,16.22,0,1,0-30.94-9.55,17.53,17.53,0,0,0-13.36-7.65,17.71,17.71,0,0,0-5.8.6,16.22,16.22,0,0,0-30.6-2.75A11.58,11.58,0,0,0,330.3,107a26.26,26.26,0,0,0-7.45,9.1,13,13,0,0,0-12.27,10.38Z"/><path class="cls-9" d="M434.14,121a9.21,9.21,0,0,0-3.45.43A14.42,14.42,0,0,0,407,113.49a14.42,14.42,0,0,0-18,2,10.16,10.16,0,0,0-19.49,5A10.49,10.49,0,0,0,355.33,119a11.51,11.51,0,0,0-8.42-4.53,11.73,11.73,0,0,0-3.62.34,11.54,11.54,0,0,0-20.91,4.89,14.42,14.42,0,0,0-1.61,28.8c.51,0,1,0,1.51,0a14.38,14.38,0,0,0,22.38,5.67,11.33,11.33,0,0,0,4.57,1.28,11.54,11.54,0,0,0,12.26-10.49,8.23,8.23,0,0,0,14.75-5.35l.11-.11a10.5,10.5,0,0,0,16.71-.8c.34.16.68.32,1,.45a10.51,10.51,0,0,0,20.17-.57,11.85,11.85,0,0,0,1.35.16,14.37,14.37,0,0,0,10.22-3.34A9.26,9.26,0,1,0,434.14,121Z"/><path class="cls-10" d="M394.93,127.07a4,4,0,0,1-.6,2.32,6.37,6.37,0,0,1-2,1.94,12,12,0,0,1-13-.86,6.33,6.33,0,0,1-1.72-2.18,4.07,4.07,0,0,1-.29-2.39,5.84,5.84,0,0,0,2.58,4.24,11.87,11.87,0,0,0,11.89.78A5.79,5.79,0,0,0,394.93,127.07Z"/><path class="cls-10" d="M351.69,137a5.35,5.35,0,0,1-.69,2.83,7.65,7.65,0,0,1-2.26,2.36,12.7,12.7,0,0,1-14.63-1,7.48,7.48,0,0,1-1.93-2.64,5.16,5.16,0,0,1-.31-2.89,7,7,0,0,0,2.88,5.12,12.54,12.54,0,0,0,13.4.89A7.09,7.09,0,0,0,351.69,137Z"/><path class="cls-10" d="M423.73,125.52a5.89,5.89,0,0,1-.52,2.53,6.6,6.6,0,0,1-1.61,2.15,7.37,7.37,0,0,1-10.25-.68,6.64,6.64,0,0,1-1.32-2.34,6,6,0,0,1-.18-2.58,6.69,6.69,0,0,0,2,4.55,7.24,7.24,0,0,0,9.38.62A6.69,6.69,0,0,0,423.73,125.52Z"/><path class="cls-7" d="M161.93,312l-.33,0a9.78,9.78,0,0,0-14.31-6,17.24,17.24,0,0,0-3.51-4.32,9.79,9.79,0,0,0-8.76-14.2,9.72,9.72,0,0,0-4.93,1.35,17.21,17.21,0,0,0-28.59-2.13,17.23,17.23,0,0,0-22.91,11.09A17.28,17.28,0,0,0,67.7,306a9.79,9.79,0,0,0-13.36,3.69,5.4,5.4,0,0,0-2.56-.64,5.47,5.47,0,0,0,0,10.94,5.4,5.4,0,0,0,2.56-.64A9.77,9.77,0,0,0,67.7,323a17.2,17.2,0,0,0,27.63,3.16,17.2,17.2,0,0,0,24.82.53A17.22,17.22,0,0,0,147.29,323a9.76,9.76,0,0,0,12.1-1.94,4.89,4.89,0,1,0,2.54-9.07Z"/><path class="cls-8" d="M161.6,312a9.79,9.79,0,0,0-14.31-6,17.24,17.24,0,0,0-3.51-4.32,9.79,9.79,0,0,0-8.76-14.2,9.72,9.72,0,0,0-4.93,1.35,17.21,17.21,0,0,0-28.59-2.13,17.23,17.23,0,0,0-22.91,11.09A17.28,17.28,0,0,0,67.7,306a9.79,9.79,0,0,0-13.36,3.69,5.4,5.4,0,0,0-2.56-.64"/><path class="cls-9" d="M162.88,314.92l-.21,0a6.22,6.22,0,0,0-6-4.66,6.29,6.29,0,0,0-3.08.81,11,11,0,0,0-2.23-2.75,6.22,6.22,0,0,0-5.57-9,6.17,6.17,0,0,0-3.14.85,11,11,0,0,0-18.19-1.35,11,11,0,0,0-14.58,7.06,11.28,11.28,0,0,0-1.32.42,8.14,8.14,0,0,0-14.5.34l0,0a4.64,4.64,0,0,0,.5-2.1,4.69,4.69,0,0,0-7-4.05,8.23,8.23,0,0,0-13.67-1,8.12,8.12,0,0,0-3-.59,8.25,8.25,0,0,0-7.91,5.89,8.3,8.3,0,0,0-5.2,3.93,4.66,4.66,0,0,0-6.39,1.76,2.66,2.66,0,0,0-1.23-.3,2.62,2.62,0,0,0,0,5.23,2.55,2.55,0,0,0,1.23-.31,4.66,4.66,0,0,0,6.39,1.76,8.22,8.22,0,0,0,13.21,1.51,8.23,8.23,0,0,0,11.87.26,8.24,8.24,0,0,0,5.82,2.4,8.14,8.14,0,0,0,3.93-1c.11,0,.23,0,.35,0a3.45,3.45,0,0,0,1.63-.4,6.22,6.22,0,0,0,8.5,2.34,10.94,10.94,0,0,0,17.58,2,11,11,0,0,0,15.8.34,10.95,10.95,0,0,0,17.26-2.35,6.22,6.22,0,0,0,7.7-1.23,3.21,3.21,0,0,0,1.62.46,3.12,3.12,0,0,0,0-6.24Z"/><path class="cls-10" d="M97.18,308.39a3.6,3.6,0,0,1-.34,2,5.38,5.38,0,0,1-1.44,1.72,8.74,8.74,0,0,1-10.05,0,5.16,5.16,0,0,1-1.44-1.72,3.7,3.7,0,0,1-.35-2,4.88,4.88,0,0,0,2.21,3.38,8.64,8.64,0,0,0,9.21,0A4.87,4.87,0,0,0,97.18,308.39Z"/><path class="cls-10" d="M138.8,304.62a3.55,3.55,0,0,1-.34,2A5.18,5.18,0,0,1,137,308.3a8.71,8.71,0,0,1-10.05,0,5.26,5.26,0,0,1-1.44-1.72,3.7,3.7,0,0,1-.35-2,4.9,4.9,0,0,0,2.21,3.38,8.64,8.64,0,0,0,9.21,0A4.87,4.87,0,0,0,138.8,304.62Z"/><path class="cls-10" d="M121.27,314.42a3.55,3.55,0,0,1-.34,2,5.06,5.06,0,0,1-1.44,1.72,8.71,8.71,0,0,1-10,0,5.19,5.19,0,0,1-1.44-1.73,3.55,3.55,0,0,1-.34-2,4.85,4.85,0,0,0,2.2,3.37,8.61,8.61,0,0,0,9.21,0A4.86,4.86,0,0,0,121.27,314.42Z"/><path class="cls-6" d="M136.17,177.42l-.07-.09v0a2.11,2.11,0,0,0-.19-.23l0,0-.19-.2-.05,0-.13-.12a4.22,4.22,0,0,0-3.83-2.47,4.16,4.16,0,0,0-1.87.45,4.7,4.7,0,0,0-.7-.29,6.55,6.55,0,0,0-5.39-3.44,4.52,4.52,0,0,0-.65-.36,5,5,0,0,0-.84-.31,5.28,5.28,0,0,0-1.38-.18h0a5.39,5.39,0,0,0-1.62.26,4.43,4.43,0,0,0-.62-.68c0-.14,0-.28,0-.43s0-.32,0-.49a8.44,8.44,0,0,0-8.43-8.43l-.61,0a9.06,9.06,0,0,0-1.74.32,8.44,8.44,0,0,0-10.91-7c-.27.09-.53.18-.79.29a8.49,8.49,0,0,0-2.7,1.87,12.87,12.87,0,0,0-1.35-1.09,12.37,12.37,0,0,0-6-2.24l-.61,0-.62,0h0a12.62,12.62,0,0,0-4.14.7,13.11,13.11,0,0,0-1.87.83c-.3.17-.59.34-.87.53a10.36,10.36,0,0,0-1.24.94,12.71,12.71,0,0,0-2.86,3.46,12.89,12.89,0,0,0-1.15,2.85,8.64,8.64,0,0,0-.88,0h0a8.32,8.32,0,0,0-1.82.2l-.58.14a9.62,9.62,0,0,0-1.1.42l-.53.26a8.53,8.53,0,0,0-3.55,3.73,5.22,5.22,0,0,0-.88-.25,5.86,5.86,0,0,0-.94-.08h0a5.25,5.25,0,0,0-1,.09A5.14,5.14,0,0,0,59,167.4a5.55,5.55,0,0,0-.48.49,4.31,4.31,0,0,0-.32.4,4.52,4.52,0,0,0-.46.76,6.66,6.66,0,0,0-2.58.89,5.66,5.66,0,0,0-.6,0,5.29,5.29,0,0,0-4.91,3.33c0,.11-.08.22-.12.33a5.21,5.21,0,0,0-1.18.36H48a5.49,5.49,0,0,0-1.58.24,5.14,5.14,0,0,0-2.56-.67,5.21,5.21,0,0,0-5.21,5.21,2.26,2.26,0,0,0,0,.26,2,2,0,0,0,0,.25h0a3.46,3.46,0,0,0,.71,2.11,5.21,5.21,0,0,0,4.5,2.6h.06a3.29,3.29,0,0,0,6.46,0h.07a4.17,4.17,0,0,0,.71-.06,5.27,5.27,0,0,0,6.78,2.09,5.3,5.3,0,0,0,1.48-.45,5.29,5.29,0,0,0,8.86.23,5.27,5.27,0,0,0,6.46-1.46A5.3,5.3,0,0,0,80,188.65a5.23,5.23,0,0,0,1.91-.36,12.54,12.54,0,0,0,18.71-1.52,6.39,6.39,0,0,0,2.7.59,6.47,6.47,0,0,0,4-1.34,5.27,5.27,0,0,0,6.83,1.5,6.57,6.57,0,0,0,9.92-3.07c.11-.15.21-.31.31-.47l.4-.07a5.27,5.27,0,0,0,6.86-1.24h.13l.3,0a3.42,3.42,0,0,0,1.27.25,3.68,3.68,0,0,0,1-.15,2.93,2.93,0,1,0,1.92-5.33Z"/><path class="cls-6" d="M386.5,192.58l-.06-.09,0,0-.18-.23,0,0-.2-.2,0,0-.13-.12a4.19,4.19,0,0,0-5.71-2,4.3,4.3,0,0,0-.7-.29,6.55,6.55,0,0,0-5.38-3.44,5.28,5.28,0,0,0-1.5-.67,5.22,5.22,0,0,0-1.38-.18h0a5.09,5.09,0,0,0-1.62.26,4,4,0,0,0-.61-.68c0-.14,0-.28,0-.43s0-.32,0-.49a8.42,8.42,0,0,0-8.43-8.43l-.61,0a9.06,9.06,0,0,0-1.74.32,8.42,8.42,0,0,0-8.36-7.4,8.25,8.25,0,0,0-2.55.39,7.47,7.47,0,0,0-.79.29,8.44,8.44,0,0,0-2.7,1.87,12.75,12.75,0,0,0-1.34-1.09,11.79,11.79,0,0,0-2-1.16,12.41,12.41,0,0,0-4-1.08l-.61,0h-.62a12.68,12.68,0,0,0-4.15.7,13.63,13.63,0,0,0-1.87.83c-.29.17-.58.34-.87.53a12.25,12.25,0,0,0-1.24.94,12.95,12.95,0,0,0-2.85,3.46,12.45,12.45,0,0,0-1.16,2.85,8.51,8.51,0,0,0-.88,0h0a8.45,8.45,0,0,0-1.82.19l-.58.15a8.59,8.59,0,0,0-1.1.42l-.52.26a8.48,8.48,0,0,0-3.55,3.73,5.33,5.33,0,0,0-.89-.25,4.83,4.83,0,0,0-.94-.09h0a6.38,6.38,0,0,0-1,.09,5.34,5.34,0,0,0-2.5,1.22,5.44,5.44,0,0,0-.48.48l-.32.4a6,6,0,0,0-.46.77,6.51,6.51,0,0,0-2.57.89,4,4,0,0,0-.6,0,5.3,5.3,0,0,0-4.92,3.33c0,.11-.08.22-.11.33a4.62,4.62,0,0,0-1.18.36l-.37,0a5.43,5.43,0,0,0-1.57.25,5.22,5.22,0,0,0-7.78,4.54c0,.09,0,.17,0,.25s0,.17,0,.26h0a3.53,3.53,0,0,0,.71,2.11,5.21,5.21,0,0,0,4.5,2.6h.07a3.29,3.29,0,0,0,6.46,0l0,0h0a5.36,5.36,0,0,0,.71-.06A5.29,5.29,0,0,0,306,201.6a5.17,5.17,0,0,0,2.23-.5,5.26,5.26,0,0,0,1.49-.45,5.28,5.28,0,0,0,8.85.23,5.35,5.35,0,0,0,2.33.54,5.27,5.27,0,0,0,4.14-2,5.29,5.29,0,0,0,5.21,4.39,5.22,5.22,0,0,0,1.9-.36,12.55,12.55,0,0,0,18.72-1.52,6.55,6.55,0,0,0,6.65-.75,5.27,5.27,0,0,0,6.83,1.5,6.56,6.56,0,0,0,9.91-3.07,4.76,4.76,0,0,0,.31-.47l.41-.07a5.26,5.26,0,0,0,6.85-1.24H382l.31,0a3.34,3.34,0,0,0,1.27.25,3.74,3.74,0,0,0,1-.15,2.91,2.91,0,0,0,4.57-2.41A2.93,2.93,0,0,0,386.5,192.58Z"/><path class="cls-7" d="M119.28,225.24a6.59,6.59,0,0,0-6.58-6.59,6.69,6.69,0,0,0-1.86.27,9.63,9.63,0,0,0,.11-1.43,10.33,10.33,0,0,0-20-3.72,15.93,15.93,0,0,0-18.13,8.61A10.37,10.37,0,0,0,66,226.75,6.65,6.65,0,0,0,62.9,226,6.59,6.59,0,1,0,66,238.39a10.31,10.31,0,0,0,8.54,4.52,10.44,10.44,0,0,0,3.51-.62,15.93,15.93,0,0,0,19.51-.85A10.33,10.33,0,0,0,115,234a10.83,10.83,0,0,0-.31-2.5A6.57,6.57,0,0,0,119.28,225.24Z"/><path class="cls-8" d="M116.7,230.46a6.58,6.58,0,0,0-4-11.81,6.69,6.69,0,0,0-1.86.27,9.63,9.63,0,0,0,.11-1.43,10.33,10.33,0,0,0-20-3.72,15.93,15.93,0,0,0-18.13,8.61A10.37,10.37,0,0,0,66,226.75,6.65,6.65,0,0,0,62.9,226a6.57,6.57,0,0,0-6.23,4.47Z"/><path class="cls-9" d="M117,224.34h0c0-.14,0-.28,0-.43a7.1,7.1,0,0,0-13.61-2.81,4.62,4.62,0,0,0-4.7-1,6.4,6.4,0,0,0-11.63-.17,9.51,9.51,0,0,0-16.94,4.77,6.38,6.38,0,0,0-8.44,2.64,4.61,4.61,0,1,0,0,6.16,6.4,6.4,0,0,0,10.51,1,6.39,6.39,0,0,0,11.94,2.37,9.5,9.5,0,0,0,14.36,1.25,9.52,9.52,0,0,0,17.37-4.72,4.82,4.82,0,0,0,1.14.15,4.62,4.62,0,1,0,0-9.23Z"/><path class="cls-10" d="M89.85,224.52a2.93,2.93,0,0,1-.16,1.24,3.09,3.09,0,0,1-.66,1.08,3.18,3.18,0,0,1-4.65,0,3.09,3.09,0,0,1-.66-1.08,2.91,2.91,0,0,1-.16-1.24,3.31,3.31,0,0,0,1,2.13,3.11,3.11,0,0,0,4.25,0A3.29,3.29,0,0,0,89.85,224.52Z"/><path class="cls-10" d="M107.81,227.85a4.87,4.87,0,0,1-.26,2A5.12,5.12,0,0,1,99,231.59a5.39,5.39,0,0,1-1.08-1.75,4.86,4.86,0,0,1-.25-2,5.33,5.33,0,0,0,1.64,3.42,5,5,0,0,0,3.43,1.36,5.08,5.08,0,0,0,3.43-1.35A5.38,5.38,0,0,0,107.81,227.85Z"/><path class="cls-10" d="M75.48,227.38a3.73,3.73,0,0,1-.2,1.55,4.15,4.15,0,0,1-.83,1.36,4,4,0,0,1-2.91,1.25,4,4,0,0,1-2.9-1.25,4,4,0,0,1-.84-1.36,3.73,3.73,0,0,1-.2-1.55A4.2,4.2,0,0,0,68.88,230a3.89,3.89,0,0,0,5.32,0A4.1,4.1,0,0,0,75.48,227.38Z"/><path class="cls-7" d="M174.49,77.83a14.46,14.46,0,0,0-4.85.85A22.61,22.61,0,0,0,151.82,70c-.52,0-1,0-1.54.07a30.49,30.49,0,0,0-58.77,3.1c-.23,0-.46,0-.69,0A14.42,14.42,0,0,0,77.39,92.89a9.49,9.49,0,1,0,6.14,17.92,13.59,13.59,0,0,0,26.13-3,30.32,30.32,0,0,0,24.7-.64,22.64,22.64,0,0,0,35.73-1.08,14.45,14.45,0,1,0,4.4-28.22Z"/><path class="cls-8" d="M77.35,92.9H188.91c0-.21,0-.41,0-.62a14.42,14.42,0,0,0-19.3-13.6A22.61,22.61,0,0,0,151.82,70c-.52,0-1,0-1.54.07a30.49,30.49,0,0,0-58.77,3.1c-.23,0-.46,0-.69,0A14.42,14.42,0,0,0,77.39,92.89Z"/><circle class="cls-9" cx="104.29" cy="90.24" r="8.12"/><path class="cls-9" d="M186.52,84.09a9,9,0,0,0-5,1.52A11.46,11.46,0,0,0,169,84.23a11.44,11.44,0,0,0-12.81-5.7,17.87,17.87,0,0,0-25.12-2.89A17.38,17.38,0,0,0,99.44,82a11.47,11.47,0,0,0-18.59,2.25A9.05,9.05,0,1,0,78.1,99.79c0,.16,0,.33,0,.5a9,9,0,0,0,17,4.41,5.89,5.89,0,0,0,5.61-.21,11.48,11.48,0,0,0,22.1-3.09A17.6,17.6,0,0,0,127,99.07a17.84,17.84,0,0,0,23.2,6.63,9,9,0,0,0,16.62-2.48,11.46,11.46,0,0,0,16.43-1.67,8.86,8.86,0,0,0,3.31.63,9,9,0,0,0,0-18.09Zm-85.11,10.4s0,0,0,0,.14-.29.2-.44a.41.41,0,0,0,.07.11Z"/><path class="cls-10" d="M154.91,85.84a7,7,0,0,1-.37,2.92,7.51,7.51,0,0,1-14.12,0,7,7,0,0,1-.37-2.92,7.78,7.78,0,0,0,2.4,5,7.35,7.35,0,0,0,10.06,0A7.8,7.8,0,0,0,154.91,85.84Z"/><path class="cls-10" d="M120,84.81a9.8,9.8,0,0,1-.52,4,10.55,10.55,0,0,1-2.17,3.54,10.41,10.41,0,0,1-15.15,0,10.55,10.55,0,0,1-2.17-3.54,9.8,9.8,0,0,1-.52-4,10.78,10.78,0,0,0,3.33,6.94,10.16,10.16,0,0,0,13.88,0A10.82,10.82,0,0,0,120,84.81Z"/><path class="cls-7" d="M447,255a14.45,14.45,0,0,0-18.43-10.85A13.74,13.74,0,0,0,405.08,241,20.59,20.59,0,0,0,373,254.75a13.75,13.75,0,1,0-3,27.17,14.09,14.09,0,0,0,3.2-.39,13.74,13.74,0,0,0,23.55,4.25,13.75,13.75,0,0,0,22-1.15,13.71,13.71,0,0,0,15.91-5A13.74,13.74,0,1,0,447,255Z"/><path class="cls-8" d="M454.85,266.9A13.75,13.75,0,0,0,447,255a14.45,14.45,0,0,0-18.43-10.85A13.74,13.74,0,0,0,405.08,241,20.59,20.59,0,0,0,373,254.75a13.72,13.72,0,0,0-16.65,12.15Z"/><path class="cls-9" d="M452.91,262.1a9.18,9.18,0,0,0-11.63-2.41,11.4,11.4,0,0,0-8.1-3.37,10.9,10.9,0,0,0-1.29.08A14.14,14.14,0,0,0,409.06,253a9.78,9.78,0,0,0-1.63-.15,9.16,9.16,0,0,0-4.7,1.3,10.43,10.43,0,0,0-18.45,5.76,11.41,11.41,0,0,0-18.2,2.22,9.09,9.09,0,0,0-4.65-1.28,9.19,9.19,0,1,0,6.82,15.31,11.35,11.35,0,0,0,13.87,1.27,9.18,9.18,0,0,0,17.09,2.32,9.08,9.08,0,0,0,11.36-.58,9.19,9.19,0,0,0,17.68-1.08,11.38,11.38,0,0,0,13-2.24,9.2,9.2,0,0,0,3.9,1.09,9.12,9.12,0,1,0,7.73-14.81Z"/><path class="cls-10" d="M404.65,261.31a7.19,7.19,0,0,1-.37,2.9,7.73,7.73,0,0,1-1.56,2.55,7.45,7.45,0,0,1-12.45-2.55,6.86,6.86,0,0,1-.37-2.9,7.74,7.74,0,0,0,2.39,5,7.29,7.29,0,0,0,10,0A7.74,7.74,0,0,0,404.65,261.31Z"/><path class="cls-10" d="M422.37,261.41a3.61,3.61,0,0,1-.19,1.45,3.89,3.89,0,0,1-.78,1.27,3.73,3.73,0,0,1-6.22-1.27,3.44,3.44,0,0,1-.19-1.45,3.94,3.94,0,0,0,1.19,2.49,3.67,3.67,0,0,0,5,0A3.9,3.9,0,0,0,422.37,261.41Z"/><path class="cls-10" d="M436,264.77a7,7,0,0,1-.38,2.9,7.46,7.46,0,0,1-12.45,2.54,7.68,7.68,0,0,1-1.56-2.54,7.21,7.21,0,0,1-.37-2.9,7.7,7.7,0,0,0,2.39,5,7.32,7.32,0,0,0,10,0A7.74,7.74,0,0,0,436,264.77Z"/><path class="cls-7" d="M305.51,291.9a5.83,5.83,0,0,0-.72.06,10.06,10.06,0,0,0-9.35-6.35h-.18a14,14,0,0,0-13.86-16.2,14,14,0,0,0-7.06,1.92,17.87,17.87,0,0,0-33.7,8.29,13.41,13.41,0,0,0-11.23,6.06,9.39,9.39,0,0,0-1.19-.08,10.07,10.07,0,1,0,5.12,18.73c.38.24.78.47,1.18.68,0,.19,0,.38,0,.58a9.79,9.79,0,0,0,18,5.34,18.41,18.41,0,0,0,25-.94,10.06,10.06,0,0,0,17.71-4.26h.2a10,10,0,0,0,8.15-4.16,4.91,4.91,0,0,0,1.92.38,5,5,0,1,0,0-10.07Z"/><path class="cls-8" d="M309.82,294.34a5,5,0,0,0-4.31-2.44,5.83,5.83,0,0,0-.72.06,10.06,10.06,0,0,0-9.35-6.35h-.18a14,14,0,0,0-13.86-16.2,14,14,0,0,0-7.06,1.92,17.87,17.87,0,0,0-33.7,8.29,13.41,13.41,0,0,0-11.23,6.06,9.39,9.39,0,0,0-1.19-.08,10.06,10.06,0,0,0-10,8.73Z"/><path class="cls-9" d="M304.84,291.2a5.93,5.93,0,0,0-1.13.11,6.36,6.36,0,0,0-5.88-3.94,6.15,6.15,0,0,0-1.06.09,9,9,0,0,0-16.51-2.84,9.25,9.25,0,0,0-14.1-4.18,9.27,9.27,0,0,0-17.46.38,13.6,13.6,0,0,0-19.46,5.24A10.68,10.68,0,1,0,232,302.15a13.58,13.58,0,0,0,9.4,3.78c.33,0,.65,0,1-.05A6.83,6.83,0,0,0,255,307.57,13.14,13.14,0,0,0,268.61,305a10.84,10.84,0,0,0,16.78.23,9.26,9.26,0,0,0,14.89-4.1,6,6,0,1,0,4.56-9.93Z"/><path class="cls-10" d="M252.46,292.11a3.94,3.94,0,0,1-.21,1.66,4.37,4.37,0,0,1-.89,1.45,4.26,4.26,0,0,1-6.2,0,4.37,4.37,0,0,1-.89-1.45,3.94,3.94,0,0,1-.21-1.66,4.37,4.37,0,0,0,1.36,2.85,4.16,4.16,0,0,0,5.68,0A4.37,4.37,0,0,0,252.46,292.11Z"/><path class="cls-10" d="M270.41,287.67a4,4,0,0,1-.21,1.65,4.34,4.34,0,0,1-.89,1.45,4.27,4.27,0,0,1-6.21,0,4.34,4.34,0,0,1-.89-1.45,4,4,0,0,1-.21-1.65,4.42,4.42,0,0,0,1.36,2.84,4.17,4.17,0,0,0,5.69,0A4.42,4.42,0,0,0,270.41,287.67Z"/><path class="cls-10" d="M287.39,293.58a8.25,8.25,0,0,1-.43,3.33,8.82,8.82,0,0,1-1.79,2.92,8.58,8.58,0,0,1-12.5,0,8.82,8.82,0,0,1-1.79-2.92,8.08,8.08,0,0,1-.42-3.33,8.84,8.84,0,0,0,2.74,5.72,8.37,8.37,0,0,0,11.44,0A8.9,8.9,0,0,0,287.39,293.58Z"/><polygon class="cls-11" points="259.62 389.56 268.61 389.56 268.61 378.56 259.62 378.56 259.62 374.56 268.61 374.56 268.61 363.56 259.62 363.56 259.62 357.36 255.86 357.36 255.86 341.06 248.58 343.63 247.78 331.72 246.94 344.2 238.86 347.06 238.86 357.36 234.75 357.36 234.75 363.56 225.22 363.56 225.22 374.56 234.75 374.56 234.75 378.56 225.22 378.56 225.22 389.56 234.75 389.56 234.75 457.15 229.98 457.15 229.98 396.59 201.27 425.31 201.27 432.31 195.69 432.31 195.69 386.56 191.11 386.56 191.11 371.06 164.61 371.06 164.61 386.81 158.11 386.81 158.11 432.31 149.88 432.31 149.88 350.87 103.61 369.31 103.61 417.06 88.08 417.06 88.08 407.06 99.62 407.06 65.72 383.72 31.82 407.06 43.36 407.06 43.36 437.72 31.82 437.72 31.82 407.06 31.82 375.72 0 375.72 0 499.72 31.82 499.72 43.36 499.72 43.36 500.02 88.08 500.02 88.08 500 264.12 500 264.12 457.15 259.62 457.15 259.62 389.56"/><polygon class="cls-11" points="481.72 312.67 481.72 331.72 468.36 331.72 468.36 415.86 461.36 415.86 461.36 377.06 417.59 377.06 417.59 414.28 410.19 414.28 410.19 395.56 394.36 395.56 394.36 414.28 385.15 414.28 385.15 357.36 379.78 357.36 379.78 349.31 364.03 349.31 364.03 357.36 358.66 357.36 358.66 397.56 350.98 397.56 350.98 357.36 345.61 357.36 345.61 349.31 329.86 349.31 329.86 357.36 324.49 357.36 324.49 443.56 314.07 443.56 314.07 427.9 310.39 427.9 310.39 410.83 303.43 410.83 303.43 393.75 278.01 403.51 278.01 410.83 271.05 410.83 271.05 427.9 267.37 427.9 267.37 500.02 314.07 500.02 314.07 500 324.49 500 324.49 500.02 350.98 500.02 350.98 403.31 358.66 403.31 358.66 500.02 385.15 500.02 385.15 487.06 456.29 487.06 456.29 500.02 500 500.02 500 312.67 481.72 312.67"/><g class="cls-12"><polygon class="cls-13" points="569.4 460.05 569.4 474.23 558.86 477.72 558.86 466.6 550.83 466.6 550.83 480.38 537.96 484.63 537.96 455.27 529.2 455.27 529.2 466.6 522.17 466.6 522.17 441.34 517.06 441.34 517.06 433.18 508.9 433.18 508.9 429.3 506.51 429.3 506.51 433.18 498.35 433.18 498.35 441.34 493.11 441.34 493.11 474.57 465.89 463.63 437.44 475.7 437.44 456.46 434.33 456.46 434.33 450.18 420.41 450.18 420.41 436.74 417.43 436.74 417.43 450.18 404.13 450.18 404.13 456.46 401.38 456.46 401.38 469.9 380.61 469.9 380.61 464.82 370.16 464.82 370.16 478.24 360.61 478.24 360.61 469.9 353.94 469.9 353.94 456.46 330.01 469.66 330.01 482.09 324.2 482.09 324.2 456.46 300.26 469.66 300.26 482.77 298.56 483.74 298.56 460.05 277.08 460.05 277.08 474.23 266.53 477.72 266.53 466.6 258.5 466.6 258.5 480.38 245.63 484.63 245.63 455.27 236.88 455.27 236.88 466.6 229.85 466.6 229.85 441.34 224.73 441.34 224.73 433.18 216.57 433.18 216.57 429.3 214.19 429.3 214.19 433.18 206.02 433.18 206.02 441.34 200.79 441.34 200.79 474.57 173.57 463.63 145.12 475.7 145.12 456.46 142.01 456.46 142.01 433.18 128.09 433.18 128.09 419.74 125.1 419.74 125.1 433.18 111.8 433.18 111.8 456.46 109.06 456.46 109.06 469.9 88.29 469.9 88.29 464.82 77.84 464.82 77.84 478.24 68.29 478.24 68.29 469.9 61.62 469.9 61.62 456.46 37.69 469.66 37.69 482.09 31.88 482.09 31.88 456.46 7.94 469.66 7.94 482.77 0 487.31 0 500.02 7.94 500.02 31.88 500.02 31.88 487.31 37.69 487.31 37.69 500.02 58.73 500.02 61.62 500.02 144.48 500.02 145.12 500.02 200.79 500.02 204.26 500.02 228.12 500.02 229.85 500.02 236.88 500.02 239.92 500.02 245.63 500.02 258.5 500.02 258.5 500.06 266.53 500.06 266.53 500.02 277.08 500.02 292.32 500.02 298.56 500.02 300.26 500.02 324.2 500.02 324.2 487.31 330.01 487.31 330.01 500.02 351.06 500.02 353.94 500.02 436.8 500.02 437.44 500.02 493.11 500.02 496.59 500.02 520.44 500.02 522.17 500.02 529.2 500.02 532.25 500.02 537.96 500.02 550.83 500.02 550.83 500.06 558.86 500.06 558.86 500.02 569.4 500.02 590.89 500.02 590.89 460.05 569.4 460.05"/></g></g></svg>